<?xml version="1.0" standalone="no"?><svg xmlns="http://www.w3.org/2000/svg" viewBox="0 0 1440 320"><path fill="#000000" fill-opacity="2" d="M0,32L6.2,48C12.3,64,25,96,37,96C49.2,96,62,64,74,90.7C86.2,117,98,203,111,234.7C123.1,267,135,245,148,213.3C160,181,172,139,185,122.7C196.9,107,209,117,222,133.3C233.8,149,246,171,258,197.3C270.8,224,283,256,295,261.3C307.7,267,320,245,332,234.7C344.6,224,357,224,369,218.7C381.5,213,394,203,406,202.7C418.5,203,431,213,443,181.3C455.4,149,468,75,480,42.7C492.3,11,505,21,517,26.7C529.2,32,542,32,554,37.3C566.2,43,578,53,591,85.3C603.1,117,615,171,628,181.3C640,192,652,160,665,165.3C676.9,171,689,213,702,202.7C713.8,192,726,128,738,90.7C750.8,53,763,43,775,58.7C787.7,75,800,117,812,117.3C824.6,117,837,75,849,69.3C861.5,64,874,96,886,117.3C898.5,139,911,149,923,154.7C935.4,160,948,160,960,154.7C972.3,149,985,139,997,160C1009.2,181,1022,235,1034,250.7C1046.2,267,1058,245,1071,213.3C1083.1,181,1095,139,1108,106.7C1120,75,1132,53,1145,64C1156.9,75,1169,117,1182,133.3C1193.8,149,1206,139,1218,165.3C1230.8,192,1243,256,1255,288C1267.7,320,1280,320,1292,304C1304.6,288,1317,256,1329,218.7C1341.5,181,1354,139,1366,144C1378.5,149,1391,203,1403,208C1415.4,213,1428,171,1434,149.3L1440,128L1440,0L1433.8,0C1427.7,0,1415,0,1403,0C1390.8,0,1378,0,1366,0C1353.8,0,1342,0,1329,0C1316.9,0,1305,0,1292,0C1280,0,1268,0,1255,0C1243.1,0,1231,0,1218,0C1206.2,0,1194,0,1182,0C1169.2,0,1157,0,1145,0C1132.3,0,1120,0,1108,0C1095.4,0,1083,0,1071,0C1058.5,0,1046,0,1034,0C1021.5,0,1009,0,997,0C984.6,0,972,0,960,0C947.7,0,935,0,923,0C910.8,0,898,0,886,0C873.8,0,862,0,849,0C836.9,0,825,0,812,0C800,0,788,0,775,0C763.1,0,751,0,738,0C726.2,0,714,0,702,0C689.2,0,677,0,665,0C652.3,0,640,0,628,0C615.4,0,603,0,591,0C578.5,0,566,0,554,0C541.5,0,529,0,517,0C504.6,0,492,0,480,0C467.7,0,455,0,443,0C430.8,0,418,0,406,0C393.8,0,382,0,369,0C356.9,0,345,0,332,0C320,0,308,0,295,0C283.1,0,271,0,258,0C246.2,0,234,0,222,0C209.2,0,197,0,185,0C172.3,0,160,0,148,0C135.4,0,123,0,111,0C98.5,0,86,0,74,0C61.5,0,49,0,37,0C24.6,0,12,0,6,0L0,0Z"></path></svg>